<?xml version="1.0" encoding="utf-8"?>
<!-- Generator: Adobe Illustrator 25.4.1, SVG Export Plug-In . SVG Version: 6.00 Build 0)  -->
<svg version="1.1" id="Layer_1" xmlns="http://www.w3.org/2000/svg" xmlns:xlink="http://www.w3.org/1999/xlink" x="0px" y="0px"
	 viewBox="0 0 841.89 595.28" style="enable-background:new 0 0 841.89 595.28;" xml:space="preserve">
<style type="text/css">
	.st0{fill:#F47B0F;}
	.st1{fill:#17365B;}
</style>
<g>
	<g>
		<g>
			<path class="st0" d="M343.34,310.09l86.93-159.87c1.01-1.83,1.23-3.9,0.62-5.88c-0.6-1.94-1.91-3.5-3.71-4.4
				c-11.28-5.68-23.15-10.27-35.3-13.65c-2.7-0.75-4.33-3.38-3.81-6.12l7.14-37.35c0.28-1.46,1.17-2.75,2.43-3.54
				c1.26-0.78,2.8-1,4.23-0.6c56.39,15.87,111.35,55.54,143.44,103.53l1.67,2.5L343.34,310.09z M393.84,120.82
				c12.36,3.47,24.45,8.16,35.94,13.94c3.21,1.62,5.57,4.41,6.64,7.87c1.06,3.44,0.67,7.22-1.08,10.37l-76.53,140.75L538.8,182.94
				c-31.47-45.62-84.03-83.21-138-98.54L393.84,120.82z"/>
		</g>
		<g>
			<path class="st0" d="M338.74,308.57L298.6,173.19c-0.39-1.36-1.28-2.45-2.51-3.1c-1.2-0.64-2.57-0.75-3.85-0.33
				c-9.12,3.01-17.98,6.93-26.33,11.65c-2.18,1.23-4.87,0.6-6.27-1.46l-16.33-24.05c-0.75-1.1-1-2.47-0.69-3.77
				c0.3-1.29,1.14-2.4,2.29-3.05c39.2-21.98,90.53-30.27,133.96-21.65l2.95,0.59L338.74,308.57z M293.79,163.71
				c1.72,0,3.43,0.42,5.01,1.26c2.6,1.37,4.55,3.78,5.36,6.6l33.97,114.58l36.65-153.59c-41.13-7.36-89.02,0.6-126.04,21.02
				l15.15,22.32c8.43-4.69,17.36-8.61,26.54-11.64C291.53,163.89,292.67,163.71,293.79,163.71z"/>
		</g>
		<g>
			<path class="st0" d="M334.39,310.76l-97.12-52.57c-0.8-0.44-1.69-0.53-2.53-0.27c-0.82,0.25-1.48,0.81-1.87,1.57
				c-3.3,6.55-5.96,13.44-7.92,20.49c-0.61,2.19-2.75,3.51-4.97,3.09l-21.92-4.19c-1.19-0.23-2.23-0.95-2.87-1.98
				c-0.63-1.03-0.81-2.28-0.48-3.43c9.39-33.35,32.85-65.86,61.24-84.84l2.5-1.67L334.39,310.76z M235.68,251.98
				c1.52,0,3.03,0.38,4.37,1.13l78.11,42.28l-61.48-100.23c-25.73,18.14-46.92,47.78-55.95,78.34l19.01,3.63
				c2.02-6.96,4.7-13.76,7.96-20.24c1.1-2.18,2.99-3.78,5.33-4.5C233.89,252.11,234.79,251.98,235.68,251.98z"/>
		</g>
		<g>
			<path class="st0" d="M238.96,372.5c-0.3,0-0.61-0.03-0.91-0.11c-1.08-0.26-2.01-0.96-2.55-1.92
				c-12.87-22.96-17.73-53.03-12.68-78.48l0.59-2.96l109.42,26.37l-81.93,24.52c-0.48,0.14-0.86,0.44-1.08,0.86
				c-0.12,0.23-0.3,0.71-0.11,1.28c1.72,5.21,3.96,10.27,6.66,15.05c1.01,1.79,0.47,4.09-1.22,5.24l-13.94,9.47
				C240.54,372.27,239.75,372.5,238.96,372.5z M227.97,296.1c-3.76,22.85,0.6,49.13,11.63,69.8l10.91-7.41
				c-2.52-4.67-4.64-9.58-6.3-14.61c-0.64-1.94-0.46-4,0.49-5.81c0.95-1.8,2.61-3.15,4.57-3.71l61.34-18.35L227.97,296.1z"/>
		</g>
		<g>
			<path class="st0" d="M311.97,402.7c-0.34,0-0.67-0.05-1-0.14c-19.06-5.36-37.63-18.77-48.48-34.99l-1.68-2.51l74.2-45.19
				l-31.18,58.11c-0.12,0.21-0.09,0.37-0.06,0.46c0.04,0.13,0.12,0.23,0.24,0.29c3.62,1.82,7.42,3.29,11.31,4.37
				c1.87,0.52,3.01,2.35,2.65,4.25l-2.36,12.34c-0.2,1.02-0.81,1.91-1.69,2.46C313.33,402.51,312.65,402.7,311.97,402.7z
				 M269.05,366.82c9.84,13.4,25.27,24.43,41.31,29.51l1.57-8.2c-3.61-1.12-7.14-2.54-10.51-4.24c-1.54-0.77-2.66-2.11-3.17-3.76
				c-0.51-1.64-0.32-3.44,0.51-4.94l21.09-39.31L269.05,366.82z"/>
		</g>
		<g>
			<path class="st0" d="M338.37,387.88c-3.94,0-7.82-0.36-11.53-1.09l-2.97-0.59l15.9-64.68l14.62,47.94
				c2.62-0.89,5.17-2.03,7.57-3.39c1.57-0.88,3.59-0.41,4.59,1.07l5.16,7.6c0.55,0.8,0.73,1.81,0.51,2.76
				c-0.22,0.95-0.84,1.76-1.69,2.24C361.1,385.02,349.5,387.88,338.37,387.88z M330.96,381.6c11.36,1.55,24.13-0.58,34.51-5.75
				l-2.54-3.75c-2.29,1.17-4.68,2.17-7.13,2.97c-1.4,0.46-2.89,0.34-4.19-0.35c-1.29-0.68-2.27-1.89-2.67-3.29l-8.57-28.1
				L330.96,381.6z M366.92,377.99C366.92,377.99,366.92,377.99,366.92,377.99L366.92,377.99z M367.7,374.68
				C367.7,374.68,367.7,374.68,367.7,374.68C367.7,374.68,367.7,374.68,367.7,374.68z M354.49,369.79L354.49,369.79
				C354.49,369.79,354.49,369.79,354.49,369.79z"/>
		</g>
		<g>
			<path class="st0" d="M370.6,362.99l-26.19-43.66l33.06,17.41c0.69-1.5,1.26-3.07,1.7-4.66c0.47-1.68,2.11-2.69,3.81-2.37
				l6.48,1.24c0.91,0.17,1.71,0.72,2.2,1.51c0.49,0.79,0.62,1.75,0.38,2.64c-2.9,10.3-10.15,20.34-18.91,26.2L370.6,362.99z
				 M360.03,334.1l12.34,20.58c5.85-4.68,10.68-11.44,13.26-18.56l-1.55-0.3c-0.54,1.56-1.18,3.08-1.92,4.55
				c-0.57,1.13-1.59,1.99-2.8,2.36c-1.21,0.38-2.55,0.24-3.66-0.38L360.03,334.1z M378.42,337.24l0.03,0.02
				C378.45,337.25,378.44,337.24,378.42,337.24z"/>
		</g>
		<g>
			<path class="st0" d="M641.16,384.54l-295.64-70.16l221.82-65.42c2.79-0.8,5.05-2.64,6.4-5.18c1.32-2.5,1.56-5.35,0.68-8.01
				c-5.1-15.45-11.74-30.46-19.73-44.61c-1.55-2.75-0.76-6.16,1.85-7.93l40.42-27.45c1.39-0.95,3.13-1.27,4.77-0.88
				c1.63,0.39,3.04,1.44,3.85,2.9c36.71,65.49,50.57,151.24,36.17,223.8L641.16,384.54z M368.05,313.78l268.58,63.74
				c13.2-70.63-0.53-153.44-36.11-216.89c-0.01-0.02-0.04-0.07-0.13-0.09c-0.07-0.01-0.13,0-0.19,0.03l-40.42,27.45
				c-0.09,0.06-0.12,0.19-0.06,0.29c8.17,14.48,14.97,29.83,20.19,45.64c1.38,4.18,1,8.63-1.06,12.54c-2.09,3.95-5.6,6.81-9.9,8.04
				L368.05,313.78z"/>
		</g>
		<g>
			<circle class="st0" cx="339.25" cy="314.89" r="4.7"/>
		</g>
	</g>
	<g>
		<g>
			<path class="st1" d="M170.28,515.73v-56.44h8.24v56.44H170.28z"/>
			<path class="st1" d="M226.19,515.73l-27.92-43.63h-0.15v43.63h-8.24v-56.44h9l27.46,42.94h0.15v-42.94h8.24v56.44H226.19z"/>
			<path class="st1" d="M253.64,491.32v24.41h-8.24v-56.44h28.53v7.55h-20.29v16.93h20.29v7.55H253.64z"/>
			<path class="st1" d="M282.93,515.73v-56.44h8.24v56.44H282.93z"/>
			<path class="st1" d="M338.84,515.73l-27.92-43.63h-0.15v43.63h-8.24v-56.44h9l27.46,42.94h0.15v-42.94h8.24v56.44H338.84z"/>
			<path class="st1" d="M358.82,515.73v-56.44h8.24v56.44H358.82z"/>
			<path class="st1" d="M392.3,466.84v48.89h-8.24v-48.89h-10.83v-7.55h29.9v7.55H392.3z"/>
			<path class="st1" d="M430.52,495.36v20.37h-8.24v-20.37l-17.54-36.08h9.23l12.43,26.47l12.36-26.47h9.15L430.52,495.36z"/>
			<path class="st1" d="M503.43,493.61c-1.68,0.61-3.66,1.07-5.49,1.07l15.79,21.05h-10.3l-18.61-26.16h-0.15v26.16h-8.24v-56.44
				h17.47c5.34,0,11.06,0.84,15.03,4.73c3.58,3.43,5.19,8.47,5.19,13.35C514.11,484.99,510.75,491.01,503.43,493.61z M493.36,466.84
				h-8.69v21.59h5.64c7.32,0,15.56-2.06,15.56-11.06C505.87,470.19,499.92,466.84,493.36,466.84z"/>
			<path class="st1" d="M559.27,515.73l-6.26-16.63h-20.29l-6.25,16.63h-8.69l21.43-56.44h7.4l21.43,56.44H559.27z M543.02,469.96
				h-0.15l-7.25,21.59h14.57L543.02,469.96z"/>
			<path class="st1" d="M613.11,473.7c-4.19-4.88-9.23-7.93-15.86-7.93c-11.9,0-20.98,9.84-20.98,21.59
				c0,11.44,9.08,21.89,20.83,21.89c5.95,0,11.59-2.97,15.41-7.48h10.14c-5.34,9.38-14.8,15.03-25.63,15.03
				c-16.09,0-28.98-13.58-28.98-29.52c0-16.17,12.97-29.06,29.06-29.06c6.02,0,12.36,1.98,17.24,5.49c3.96,2.82,6.33,5.8,8.69,9.99
				H613.11z"/>
			<path class="st1" d="M639.88,515.73h-8.24v-56.44h8.24V515.73z M661.47,459.28h10.15l-22.04,27.99l22.04,28.45h-10.15
				l-21.43-28.45L661.47,459.28z"/>
		</g>
	</g>
</g>
</svg>
