<svg width="842" height="596" viewBox="0 0 842 596" fill="none" xmlns="http://www.w3.org/2000/svg">
<g clip-path="url(#clip0_583_577)">
<path d="M343.34 310.09L430.27 150.22C431.28 148.39 431.5 146.32 430.89 144.34C430.29 142.4 428.98 140.84 427.18 139.94C415.9 134.26 404.03 129.67 391.88 126.29C389.18 125.54 387.55 122.91 388.07 120.17L395.21 82.82C395.49 81.36 396.38 80.07 397.64 79.28C398.9 78.5 400.44 78.28 401.87 78.68C458.26 94.55 513.22 134.22 545.31 182.21L546.98 184.71L343.34 310.09ZM393.84 120.82C406.2 124.29 418.29 128.98 429.78 134.76C432.99 136.38 435.35 139.17 436.42 142.63C437.48 146.07 437.09 149.85 435.34 153L358.81 293.75L538.8 182.94C507.33 137.32 454.77 99.73 400.8 84.4L393.84 120.82Z" fill="#F47B0F"/>
<path d="M338.74 308.57L298.6 173.19C298.21 171.83 297.32 170.74 296.09 170.09C294.89 169.45 293.52 169.34 292.24 169.76C283.12 172.77 274.26 176.69 265.91 181.41C263.73 182.64 261.04 182.01 259.64 179.95L243.31 155.9C242.56 154.8 242.31 153.43 242.62 152.13C242.92 150.84 243.76 149.73 244.91 149.08C284.11 127.1 335.44 118.81 378.87 127.43L381.82 128.02L338.74 308.57ZM293.79 163.71C295.51 163.71 297.22 164.13 298.8 164.97C301.4 166.34 303.35 168.75 304.16 171.57L338.13 286.15L374.78 132.56C333.65 125.2 285.76 133.16 248.74 153.58L263.89 175.9C272.32 171.21 281.25 167.29 290.43 164.26C291.53 163.89 292.67 163.71 293.79 163.71Z" fill="#F47B0F"/>
<path d="M334.39 310.76L237.27 258.19C236.47 257.75 235.58 257.66 234.74 257.92C233.92 258.17 233.26 258.73 232.87 259.49C229.57 266.04 226.91 272.93 224.95 279.98C224.34 282.17 222.2 283.49 219.98 283.07L198.06 278.88C196.87 278.65 195.83 277.93 195.19 276.9C194.56 275.87 194.38 274.62 194.71 273.47C204.1 240.12 227.56 207.61 255.95 188.63L258.45 186.96L334.39 310.76ZM235.68 251.98C237.2 251.98 238.71 252.36 240.05 253.11L318.16 295.39L256.68 195.16C230.95 213.3 209.76 242.94 200.73 273.5L219.74 277.13C221.76 270.17 224.44 263.37 227.7 256.89C228.8 254.71 230.69 253.11 233.03 252.39C233.89 252.11 234.79 251.98 235.68 251.98Z" fill="#F47B0F"/>
<path d="M238.96 372.5C238.66 372.5 238.35 372.47 238.05 372.39C236.97 372.13 236.04 371.43 235.5 370.47C222.63 347.51 217.77 317.44 222.82 291.99L223.41 289.03L332.83 315.4L250.9 339.92C250.42 340.06 250.04 340.36 249.82 340.78C249.7 341.01 249.52 341.49 249.71 342.06C251.43 347.27 253.67 352.33 256.37 357.11C257.38 358.9 256.84 361.2 255.15 362.35L241.21 371.82C240.54 372.27 239.75 372.5 238.96 372.5ZM227.97 296.1C224.21 318.95 228.57 345.23 239.6 365.9L250.51 358.49C247.99 353.82 245.87 348.91 244.21 343.88C243.57 341.94 243.75 339.88 244.7 338.07C245.65 336.27 247.31 334.92 249.27 334.36L310.61 316.01L227.97 296.1Z" fill="#F47B0F"/>
<path d="M311.97 402.7C311.63 402.7 311.3 402.65 310.97 402.56C291.91 397.2 273.34 383.79 262.49 367.57L260.81 365.06L335.01 319.87L303.83 377.98C303.71 378.19 303.74 378.35 303.77 378.44C303.81 378.57 303.89 378.67 304.01 378.73C307.63 380.55 311.43 382.02 315.32 383.1C317.19 383.62 318.33 385.45 317.97 387.35L315.61 399.69C315.41 400.71 314.8 401.6 313.92 402.15C313.33 402.51 312.65 402.7 311.97 402.7ZM269.05 366.82C278.89 380.22 294.32 391.25 310.36 396.33L311.93 388.13C308.32 387.01 304.79 385.59 301.42 383.89C299.88 383.12 298.76 381.78 298.25 380.13C297.74 378.49 297.93 376.69 298.76 375.19L319.85 335.88L269.05 366.82Z" fill="#F47B0F"/>
<path d="M338.37 387.88C334.43 387.88 330.55 387.52 326.84 386.79L323.87 386.2L339.77 321.52L354.39 369.46C357.01 368.57 359.56 367.43 361.96 366.07C363.53 365.19 365.55 365.66 366.55 367.14L371.71 374.74C372.26 375.54 372.44 376.55 372.22 377.5C372 378.45 371.38 379.26 370.53 379.74C361.1 385.02 349.5 387.88 338.37 387.88ZM330.96 381.6C342.32 383.15 355.09 381.02 365.47 375.85L362.93 372.1C360.64 373.27 358.25 374.27 355.8 375.07C354.4 375.53 352.91 375.41 351.61 374.72C350.32 374.04 349.34 372.83 348.94 371.43L340.37 343.33L330.96 381.6Z" fill="#F47B0F"/>
<path d="M370.6 362.99L344.41 319.33L377.47 336.74C378.16 335.24 378.73 333.67 379.17 332.08C379.64 330.4 381.28 329.39 382.98 329.71L389.46 330.95C390.37 331.12 391.17 331.67 391.66 332.46C392.15 333.25 392.28 334.21 392.04 335.1C389.14 345.4 381.89 355.44 373.13 361.3L370.6 362.99ZM360.03 334.1L372.37 354.68C378.22 350 383.05 343.24 385.63 336.12L384.08 335.82C383.54 337.38 382.9 338.9 382.16 340.37C381.59 341.5 380.57 342.36 379.36 342.73C378.15 343.11 376.81 342.97 375.7 342.35L360.03 334.1ZM378.42 337.24L378.45 337.26C378.45 337.25 378.44 337.24 378.42 337.24Z" fill="#F47B0F"/>
<path d="M641.16 384.54L345.52 314.38L567.34 248.96C570.13 248.16 572.39 246.32 573.74 243.78C575.06 241.28 575.3 238.43 574.42 235.77C569.32 220.32 562.68 205.31 554.69 191.16C553.14 188.41 553.93 185 556.54 183.23L596.96 155.78C598.35 154.83 600.09 154.51 601.73 154.9C603.36 155.29 604.77 156.34 605.58 157.8C642.29 223.29 656.15 309.04 641.75 381.6L641.16 384.54ZM368.05 313.78L636.63 377.52C649.83 306.89 636.1 224.08 600.52 160.63C600.51 160.61 600.48 160.56 600.39 160.54C600.32 160.53 600.26 160.54 600.2 160.57L559.78 188.02C559.69 188.08 559.66 188.21 559.72 188.31C567.89 202.79 574.69 218.14 579.91 233.95C581.29 238.13 580.91 242.58 578.85 246.49C576.76 250.44 573.25 253.3 568.95 254.53L368.05 313.78Z" fill="#F47B0F"/>
<path d="M339.25 319.59C341.846 319.59 343.95 317.486 343.95 314.89C343.95 312.294 341.846 310.19 339.25 310.19C336.654 310.19 334.55 312.294 334.55 314.89C334.55 317.486 336.654 319.59 339.25 319.59Z" fill="#F47B0F"/>
<path d="M170.28 515.73V459.29H178.52V515.73H170.28Z" fill="white"/>
<path d="M226.19 515.73L198.27 472.1H198.12V515.73H189.88V459.29H198.88L226.34 502.23H226.49V459.29H234.73V515.73H226.19Z" fill="white"/>
<path d="M253.64 491.32V515.73H245.4V459.29H273.93V466.84H253.64V483.77H273.93V491.32H253.64Z" fill="white"/>
<path d="M282.93 515.73V459.29H291.17V515.73H282.93Z" fill="white"/>
<path d="M338.84 515.73L310.92 472.1H310.77V515.73H302.53V459.29H311.53L338.99 502.23H339.14V459.29H347.38V515.73H338.84Z" fill="white"/>
<path d="M358.82 515.73V459.29H367.06V515.73H358.82Z" fill="white"/>
<path d="M392.3 466.84V515.73H384.06V466.84H373.23V459.29H403.13V466.84H392.3Z" fill="white"/>
<path d="M430.52 495.36V515.73H422.28V495.36L404.74 459.28H413.97L426.4 485.75L438.76 459.28H447.91L430.52 495.36Z" fill="white"/>
<path d="M503.43 493.61C501.75 494.22 499.77 494.68 497.94 494.68L513.73 515.73H503.43L484.82 489.57H484.67V515.73H476.43V459.29H493.9C499.24 459.29 504.96 460.13 508.93 464.02C512.51 467.45 514.12 472.49 514.12 477.37C514.11 484.99 510.75 491.01 503.43 493.61ZM493.36 466.84H484.67V488.43H490.31C497.63 488.43 505.87 486.37 505.87 477.37C505.87 470.19 499.92 466.84 493.36 466.84Z" fill="white"/>
<path d="M559.27 515.73L553.01 499.1H532.72L526.47 515.73H517.78L539.21 459.29H546.61L568.04 515.73H559.27ZM543.02 469.96H542.87L535.62 491.55H550.19L543.02 469.96Z" fill="white"/>
<path d="M613.11 473.7C608.92 468.82 603.88 465.77 597.25 465.77C585.35 465.77 576.27 475.61 576.27 487.36C576.27 498.8 585.35 509.25 597.1 509.25C603.05 509.25 608.69 506.28 612.51 501.77H622.65C617.31 511.15 607.85 516.8 597.02 516.8C580.93 516.8 568.04 503.22 568.04 487.28C568.04 471.11 581.01 458.22 597.1 458.22C603.12 458.22 609.46 460.2 614.34 463.71C618.3 466.53 620.67 469.51 623.03 473.7H613.11Z" fill="white"/>
<path d="M639.88 515.73H631.64V459.29H639.88V515.73ZM661.47 459.28H671.62L649.58 487.27L671.62 515.72H661.47L640.04 487.27L661.47 459.28Z" fill="white"/>
</g>
<defs>
<clipPath id="clip0_583_577">
<rect width="841.89" height="595.28" fill="white"/>
</clipPath>
</defs>
</svg>
