<svg xmlns="http://www.w3.org/2000/svg" viewBox="0 0 1104 790">
	<path fill="#F47B0F"
		d="M1105 629.531c-.666 1.486-1.865 2.477-1.916 3.524-.474 9.758-.382 19.556-1.184 29.283-.873 10.588-2.358 21.137-3.872 31.66-2.206 15.342-4.63 30.653-7.084 45.957-.377 2.352-1.418 4.597-2.173 6.958-14.882-3.36-29.436-6.555-43.943-9.95-10.738-2.512-21.406-5.324-32.123-7.928-8.511-2.067-17.045-4.041-25.576-6.022-10.59-2.457-21.203-4.808-31.775-7.335-8.827-2.11-17.584-4.517-26.418-6.594-10.744-2.525-21.558-4.751-32.303-7.271-13.58-3.185-27.124-6.526-40.68-9.816-18.766-4.555-37.509-9.21-56.3-13.658-11.066-2.62-22.249-4.747-33.302-7.414-17.03-4.11-33.959-8.64-50.995-12.72-17.684-4.235-35.47-8.037-53.165-12.228-21.485-5.09-42.897-10.485-64.384-15.563-16.756-3.96-33.614-7.488-50.361-11.484-17.04-4.066-33.967-8.606-51.004-12.687-17.68-4.236-35.458-8.059-53.145-12.264-21.636-5.145-43.217-10.516-64.833-15.742-2.373-.574-4.838-.76-7.225-1.286-.785-.172-1.46-.847-2.187-1.292.623-.551 1.16-1.4 1.882-1.61 18.543-5.399 37.128-10.657 55.66-16.097 17.1-5.02 34.13-10.284 51.227-15.322 14.624-4.31 29.328-8.35 43.942-12.692 20.96-6.227 41.848-12.694 62.81-18.913 13.984-4.15 28.066-7.968 42.063-12.073 18.504-5.427 36.95-11.052 55.454-16.478 17.893-5.247 35.862-10.239 53.737-15.546 20.828-6.184 41.562-12.684 62.39-18.865 14.142-4.196 28.414-7.953 42.56-12.132 21.312-6.296 42.526-12.926 63.863-19.133 9.02-2.623 16.317-6.755 20.168-15.945 2.202-5.255 2.74-10.355.82-15.566-5.386-14.62-10.446-29.392-16.593-43.693-7.515-17.48-15.932-34.576-24.11-51.765-2.718-5.712-6.305-11.031-8.763-16.84-2.511-5.936 1.078-14.306 6.505-17.957 16.48-11.087 32.843-22.347 49.301-33.466 15.647-10.57 31.471-20.884 47-31.624 10.516-7.274 20.192-2.878 25.03 6.049 13.341 24.61 25.933 49.585 36.235 75.641 6.733 17.027 13.538 34.043 19.585 51.318 4.651 13.287 8.298 26.933 12.157 40.486 3.377 11.855 6.87 23.705 9.517 35.732 3.878 17.615 7.256 35.348 10.454 53.102 2.632 14.606 4.871 29.29 6.933 43.988 1.093 7.799 1.593 15.693 2.086 23.561.806 12.856 1.372 25.726 2.111 38.586.04.703.737 1.369 1.526 1.824.398 22.792.398 45.813.398 69.302M592.5 613c15.137 3.666 30.249 7.437 45.417 10.967 13.596 3.163 27.305 5.854 40.873 9.13 15.45 3.731 30.759 8.044 46.203 11.801 17.194 4.183 34.483 7.972 51.707 12.031 18.168 4.281 36.294 8.736 54.464 13.008 17.073 4.014 34.2 7.802 51.263 11.852 12.3 2.92 24.511 6.215 36.809 9.143 17.207 4.098 34.474 7.943 51.686 12.021 16.582 3.928 33.108 8.09 49.692 12.005 12.335 2.911 24.724 5.589 37.088 8.375 6.272 1.414 12.54 2.837 20.012 4.528 28.843-185.67-.74-360.064-87.974-525.63l-98.163 66.574c2.81 4.994 5.96 9.736 8.279 14.854 11.417 25.197 23.104 50.292 33.66 75.85 4.47 10.826 8.977 21.851 8.71 34.343-.332 15.52-11.048 31.425-26.563 36.21-15.318 4.724-30.673 9.332-46.04 13.895-14.715 4.37-29.478 8.582-44.202 12.924-16.942 4.996-33.853 10.1-50.8 15.079-14.62 4.295-29.294 8.407-43.905 12.732-20.367 6.028-40.684 12.223-61.047 18.267-31.398 9.319-62.805 18.609-94.23 27.838-26.303 7.725-52.637 15.34-78.954 23.015-15.394 4.49-30.787 8.984-46.17 13.512-6.662 1.96-13.298 4.01-19.946 6.02 5.705 2.473 11.374 4.24 17.141 5.594 12.34 2.894 24.757 5.457 37.093 8.369 21.805 5.147 43.57 10.466 65.357 15.687A4752.86 4752.86 0 00592.5 613zM509.537 1c1.086.665 1.586 1.674 2.348 1.944 19.228 6.805 38.78 12.8 57.648 20.48 18.756 7.634 37.26 16.146 55.082 25.743 19.577 10.542 38.516 22.35 57.234 34.38 14.925 9.594 29.373 19.993 43.518 30.713 10.267 7.78 19.935 16.406 29.435 25.128 13.732 12.606 27.366 25.347 40.51 38.56 20.707 20.813 38.818 43.829 55.646 67.86 3.362 4.8 6.645 9.655 10.044 14.6-165.854 102.102-331.491 204.072-497.13 306.04l-.903-1.062c6.242-11.522 12.48-23.048 18.727-34.568 6.409-11.818 12.804-23.643 19.244-35.444 6.386-11.7 12.863-23.35 19.222-35.065 6.665-12.28 13.19-24.635 19.86-36.912 8.381-15.427 16.86-30.801 25.273-46.211a8024.483 8024.483 0 0015.547-28.645c6.17-11.412 12.273-22.862 18.492-34.249 5.454-9.988 11.072-19.887 16.54-29.868 11.18-20.41 22.371-40.815 33.44-61.285 8.408-15.552 16.333-31.373 25.048-46.748 5.7-10.057.682-21.126-8.21-24.87-17.896-7.536-35.482-15.824-53.496-23.056-10.486-4.21-21.483-7.223-32.386-10.29-5.922-1.665-9.146-9.93-8.193-15.14 3.281-17.926 6.62-35.842 9.97-53.756 2.3-12.309 4.133-24.742 7.27-36.835 1.065-4.106 5.477-7.344 8.021-11.211C501.025 1 505.05 1 509.537 1m-7.516 461.501l336.284-207.008C776.69 168.69 697.204 103.592 603.145 55.891c-31.477-15.963-64.181-29.288-98.55-38.234l-16.44 86.17c10.76 3.54 21.04 6.49 30.99 10.299 14.78 5.657 29.49 11.565 43.91 18.076 7.51 3.392 15.784 5.94 21.35 12.718 7.598 9.254 11.325 19.532 6.863 31.313-2.334 6.163-5.282 12.128-8.354 17.972a3394.672 3394.672 0 01-24.638 45.97c-10.661 19.546-21.539 38.975-32.197 58.523-8.084 14.829-15.93 29.787-23.96 44.645-6.661 12.327-13.478 24.57-20.15 36.89-9.427 17.41-18.733 34.884-28.187 52.278-6.862 12.625-13.88 25.164-20.828 37.741-7.616 13.787-15.265 27.555-22.823 41.373-1.575 2.879-2.812 5.942-4.205 8.92l.797.54c31.587-19.358 63.173-38.716 95.298-58.584zM1 474.454c.659-.962 1.672-1.335 1.925-1.997 6.456-16.969 12.11-34.285 19.39-50.888 11.211-25.565 26.129-49.132 43.159-71.187 9.694-12.554 20.812-24.02 31.461-35.823 16.859-18.683 36.848-33.688 57.264-48.16 1.026-.728 2.349-1.037 4.082-1.775 61.702 100.606 123.34 201.11 184.98 301.612l-.8 1.009c-3.289-1.46-6.69-2.71-9.848-4.413-19-10.238-37.964-20.544-56.902-30.897-16.56-9.054-33.031-18.269-49.61-27.287-15.078-8.2-30.283-16.166-45.366-24.357-16.267-8.833-32.445-17.83-48.687-26.71a2766.8 2766.8 0 00-26.089-14.059c-3.778-2.013-7.943-.499-10.095 4.062-3.747 7.94-7.486 15.91-10.66 24.088-2.972 7.661-5.223 15.604-7.765 23.432-2.496 7.686-8.62 10.671-17.589 8.816-11.616-2.404-23.298-4.495-34.896-6.98-6.275-1.345-12.497-3.038-18.61-4.993-1.775-.567-3.09-2.58-4.98-3.938C1 480.969 1 477.939 1 474.454m248.518-30.416c-2.29-3.938-4.485-7.934-6.886-11.802-9.866-15.893-19.88-31.693-29.679-47.626-15.853-25.778-31.568-51.642-47.369-77.453-4.152-6.784-8.403-13.507-12.727-20.448C87.863 335.663 43.24 398.272 18.352 475.134c9.436 2.04 17.823 3.95 26.254 5.641 4.636.93 9.34 1.539 14.025 2.205 2.404.342 4.291-.01 5.365-2.841 5.264-13.868 10.545-27.735 16.164-41.462 6.27-15.315 21.334-19.45 33.733-12.723 11.696 6.345 23.55 12.4 35.248 18.741 12.892 6.987 25.666 14.19 38.527 21.232 11.663 6.387 23.381 12.672 35.062 19.025 6.55 3.563 13.048 7.224 19.616 10.753 12.033 6.465 24.102 12.86 36.15 19.295 6.687 3.57 13.361 7.163 21.253 11.396-1.55-2.614-2.272-3.862-3.022-5.093-8.894-14.588-17.787-29.177-26.69-43.76a13094.246 13094.246 0 00-20.519-33.505zM280.465 791c-2.114-1.159-3.605-2.783-5.437-3.403-14.64-4.956-28.331-11.804-41.654-19.61-19.172-11.233-35.738-25.577-50.565-41.898-6.726-7.405-12.202-15.947-18.23-23.985-1.97-2.628-1.546-4.39 1.475-6.184 15.53-9.227 30.955-18.631 46.38-28.034 18.184-11.085 36.318-22.249 54.495-33.344 12.365-7.549 24.77-15.033 37.15-22.556 12.236-7.436 24.46-14.89 36.702-22.317.837-.507 1.77-.856 3.366-.89C319.76 636.331 294.23 683.27 268.848 731c3.532 1.689 6.875 3.585 10.43 4.914 5.158 1.927 10.442 3.534 15.72 5.113 7.069 2.115 9.601 7.397 7.805 14.692-1.981 8.043-3.61 16.22-4.64 24.432-.53 4.221-2.02 7.476-4.506 10.607-4.014.242-8.37.242-13.192.242m5.576-149.522c-6.216 3.875-12.414 7.779-18.65 11.62-13.862 8.536-27.71 17.096-41.626 25.544-13.485 8.187-27.047 16.245-40.772 24.478 1.31 1.818 2.358 3.421 3.554 4.905 13.032 16.156 28.22 29.977 45.496 41.452 14.09 9.358 28.95 17.227 45.051 22.665 3.083 1.042 4.533 1.16 4.989-2.598.577-4.76 1.675-9.457 2.402-13.392-9.068-3.969-17.94-7.205-26.16-11.646-7.22-3.9-9.434-14.72-5.587-21.715a4620.046 4620.046 0 0017.02-31.185c9.112-16.87 18.184-33.763 27.233-50.666 1.468-2.741 2.734-5.59 4.54-9.31-6.355 3.555-11.61 6.495-17.49 9.848zM280.243 320.54c-3.22-11.471-6.127-22.607-9.342-33.653-3.122-10.727-6.576-21.358-9.852-32.04-2.376-7.747-4.615-15.537-7.077-23.256-1.75-5.49-8.674-8.62-14.072-6.792-19.214 6.51-37.765 14.382-55.626 24.01-4.453 2.401-9.528 3.805-14.466 5.099-4.4 1.152-7.786-1.438-10.113-4.818-8.027-11.663-15.823-23.485-23.728-35.231-5.09-7.563-10.272-15.064-15.313-22.658-4.834-7.281-3.237-15.294 4.47-19.123 15.359-7.63 30.745-15.289 46.541-21.933 14.456-6.08 29.251-11.582 44.293-15.983 16.631-4.867 33.65-8.498 50.62-12.094 13.216-2.801 26.57-5.078 39.955-6.918 9.44-1.298 19.024-1.685 28.56-2.098 12.588-.545 25.218-1.384 37.783-.89 17.244.678 34.463 2.278 51.653 3.896 9.418.887 18.764 2.571 28.126 3.999 5.135.783 6.218 2.703 4.922 7.863-4.508 17.942-9.154 35.851-13.417 53.852-3.965 16.742-7.393 33.61-11.266 50.375a4760.704 4760.704 0 01-13.974 58.725c-3.077 12.59-6.648 25.06-9.666 37.663-5.22 21.794-10.097 43.669-15.289 65.47-2.777 11.66-6.097 23.192-8.831 34.862-2.928 12.494-5.234 25.135-8.212 37.616-3.952 16.562-8.418 33.002-12.428 49.551-3.699 15.268-7.087 30.61-11.769 46.039-1.55-4.28-3.35-8.489-4.607-12.853-4.849-16.827-9.355-33.754-14.307-50.55-6.264-21.25-12.942-42.378-19.252-63.615-6.324-21.29-12.374-42.66-18.621-63.974-4.653-15.871-9.419-31.71-14.172-47.552-.277-.923-.89-1.744-1.523-2.988m-116.83-149.617l-28.025 13.742 36.17 53.038c1.25-1.12 1.76-1.837 2.454-2.158 12.916-5.996 25.633-12.505 38.858-17.725 10.334-4.079 20.413-8.915 32.228-9.11 11.72-.192 21.673 9.29 24.702 18.948 5.53 17.625 10.833 35.322 16.045 53.044 6.27 21.317 12.259 42.716 18.532 64.031 4.39 14.916 9.123 29.731 13.574 44.63 4.406 14.746 8.656 29.538 12.964 44.314 3.721 12.765 7.391 25.545 11.152 38.298 2.764 9.373 5.638 18.714 8.463 28.069l1.68.08c29.087-121.907 58.173-243.815 87.433-366.455-96.298-14.464-187.686-1.92-276.23 37.254zM146.723 665.36c2.63 5.622 5.07 10.91 7.457 16.222 2.017 4.488.353 8.264-3.2 10.79-11.546 8.205-23.25 16.193-35.028 24.06-4.744 3.168-11.947 1.135-14.755-3.885-8.42-15.051-15.787-30.581-20.479-47.238-3.647-12.95-7.528-25.867-10.384-38.999-1.937-8.91-2.76-18.142-3.226-27.274-.743-14.572-1.442-29.205-.901-43.765.447-12.051 2.7-24.036 4.185-36.047.24-1.932.654-3.843 1.116-6.506l267.42 64.483.247 1.125c-1.358.57-2.678 1.27-4.081 1.69-10.078 3.013-20.192 5.903-30.257 8.957-17.014 5.164-33.967 10.533-51.01 15.597-10.245 3.044-20.658 5.522-30.914 8.531-10.72 3.146-21.312 6.736-32.019 9.933-15.982 4.772-32.008 9.401-48.035 14.025-5.437 1.569-6.599 3.637-4.47 8.751a1414.987 1414.987 0 008.334 19.55m101.914-76.272l30.779-9.002-.214-.924L84.19 532.125c-8.781 58.84 1.644 114.23 27.86 167.33l24.891-16.85c-2.44-5.203-4.875-10.137-7.08-15.171a348.695 348.695 0 01-6.26-15.319c-3.87-10.116-3.028-19.87 4.785-25.407 4.43-3.139 10.463-4.103 15.858-5.772 22.274-6.892 44.567-13.72 66.878-20.49 12.25-3.716 24.551-7.269 37.515-11.358zM337.532 754.77c-7.435-1.399-14.443-2.628-21.836-3.925l39.032-158.604 1.497-.059 35.547 116.32c5.836-2.721 11.64-5.214 17.243-8.1 5.488-2.826 8.608-1.694 12.14 2.518 4.474 5.331 7.883 11.544 11.9 17.274 5.922 8.449 1.187 13.597-5.299 16.802-16.687 8.248-34.075 13.785-52.717 16.345-12.438 1.709-24.723 1.185-37.507 1.428m26.393-83.158l-6.419-19.778-1.15.303-21.198 85.956c28.458 3.665 55.22-1.387 81.137-13.302-4.685-7.37-4.693-7.391-11.434-4.72-2.566 1.019-4.994 2.668-7.644 3.146-10.876 1.96-17.192 1.84-20.834-10.372-4.026-13.498-8.196-26.953-12.458-41.233zM429.217 693.552c-6.413-10.788-12.666-21.251-18.9-31.726-10.196-17.134-20.343-34.297-30.586-51.402-3.843-6.417-7.91-12.7-11.843-19.063-.74-1.196-1.332-2.483-1.309-4.71 3.533 1.68 7.12 3.255 10.588 5.058a6568.317 6568.317 0 0138.814 20.346c9.018 4.764 18.198 9.278 26.876 14.604 3.687 2.263 4.57.702 5.8-1.939.266-.572.19-1.295.355-1.927 2.8-10.708 6.86-12.474 17.208-9.854 3.459.877 7.002 1.434 10.522 2.052 4.53.796 7.732 5.477 6.804 9.93-3.047 14.616-10.468 27.06-18.945 39.077-8.676 12.298-20.04 21.574-32.33 29.885-.658.445-1.91.013-3.054-.33m2.413-54.62l-22.903-12.36c7.9 14.605 16.302 28.354 24.532 42.205 1.53 2.574 2.84 3.015 4.745.718 7.014-8.456 14.011-16.928 20.94-25.454.565-.695.565-1.848.828-2.788-7.25 7.595-14.435 5.178-21.744.77-1.818-1.095-3.765-1.975-6.398-3.092zM360.546 566.05c5.966 3.943 8.196 11.807 4.103 17.638-4.69 6.684-11.847 6.628-18.29 2.937-3.073-1.76-5.403-10.51-4.227-13.906 1.588-4.587 6.17-7.776 11.373-7.682 2.245.04 4.483.49 7.04 1.014z" />
</svg>